# xmcd
#
# Track frame offsets:
#       150
#       13611
#       47865
#       68017
#       78818
#       91018
#       104060
#       117529
#       131578
#       145937
#       161397
#       173426
#       190020
#       206732
#       223585
#       240784
#       260376
#
# Disc length: 3759 seconds
#
# Revision: 1
# Processed by: cddbd v1.5.1PL0 Copyright (c) Steve Scherf et al.
# Submitted via: MusiCat 1.1
#
DISCID=de0ead11
DTITLE=Garth Brooks - Coletânea
DYEAR=1900
DGENRE=
TTITLE0=Callin' baton rouge (ao vivo)
TTITLE1=American pie
TTITLE2=The river
TTITLE3=Against the grain
TTITLE4=The fever
TTITLE5=Papa loved mama
TTITLE6=Much too young
TTITLE7=A friend to me
TTITLE8=Wild horses
TTITLE9=Unanswered prayes
TTITLE10=Callin' baton rouge
TTITLE11=The dance
TTITLE12=If tomorrow never comes
TTITLE13=Thunder rolls
TTITLE14=We shall be free
TTITLE15=I got a friends in low places
TTITLE16=That summer
EXTD=\n\n
EXTT0=
EXTT1=
EXTT2=
EXTT3=
EXTT4=
EXTT5=
EXTT6=
EXTT7=
EXTT8=
EXTT9=
EXTT10=
EXTT11=
EXTT12=
EXTT13=
EXTT14=
EXTT15=
EXTT16=
PLAYORDER=
